<?xml version="1.0" encoding="utf-8"?>
<!-- Generator: Adobe Illustrator 25.0.1, SVG Export Plug-In . SVG Version: 6.00 Build 0)  -->
<svg version="1.1" id="Layer_1" xmlns="http://www.w3.org/2000/svg" xmlns:xlink="http://www.w3.org/1999/xlink" x="0px" y="0px"
	 viewBox="0 0 179.6 33.1" style="enable-background:new 0 0 179.6 33.1;" xml:space="preserve">
<style type="text/css">
	.st0{fill-rule:evenodd;clip-rule:evenodd;fill:#FFFFFF;}
</style>
<g>
	<path class="st0" d="M30.4,8.2C26.7,8.5,25,6,22.6,2.9l-0.6-1h10.1c0.8,0,1.3,2.5,0.8,4C32.7,6.9,31.8,7.8,30.4,8.2
		C30.5,8.1,30.4,8.2,30.4,8.2L30.4,8.2z"/>
	<path class="st0" d="M167,16.1c1.2,0,1.9,0.3,2.5,1.3l-5.4,3c0-0.4,0-0.5,0-0.5C164.1,18.1,165.7,16.1,167,16.1L167,16.1z
		 M118.3,20.5c0,5.9-4.8,10.8-10.6,10.8c-5.8,0-10.6-4.9-10.6-10.8c0-6,4.8-10.8,10.6-10.8S118.3,14.5,118.3,20.5L118.3,20.5z
		 M13.3,17.6h-1.1c-0.3,0-0.6-0.3-0.6-0.6v-6.6c0-0.3,0.3-0.6,0.6-0.6h1.2h0.3c6,0,9.8,4.6,9.8,10.5c0,6.6-4.7,11-10.4,11
		C7.1,31.3,2,27.5,2,18.2v-10V4.5V2.6C2,2.3,2.3,2,2.6,2h6.9c0.3,0,0.6,0.3,0.6,0.6v2v0.7v14.5c0,2.5,1.3,3.6,3,3.6
		c1.5,0,2.8-1.2,2.8-3c0-1.9-1.9-3.2-2.5-2.9L13.3,17.6L13.3,17.6z M33.2,30.8c0,0.2-0.2,0.4-0.4,0.4h-7.3c-0.2,0-0.4-0.2-0.4-0.4
		V30V13.1v-3c0-0.2,0.2-0.4,0.4-0.4h7.3c0.2,0,0.4,0.2,0.4,0.4v3V30V30.8L33.2,30.8z M41.7,30.8c0,0.2-0.1,0.4-0.3,0.4h-6.5
		c-0.2,0-0.4-0.2-0.4-0.4v-1.2v-6.8c-0.4-9.4,2.7-13.2,9.4-13.1c7.2,0.1,8.3,7.5,8.1,9.6c0,0.4,0,0.7,0,0.9c-0.1,0.5-0.3,1-0.6,1H46
		c-0.3,0-0.6-0.3-0.6-0.6v-0.5c0-1.8-0.6-2.9-1.9-2.8c-1.7,0.1-1.8,1.7-1.8,3.9v8.3V30.8L41.7,30.8z M63.4,17.6
		c-0.6-0.2-2.5,1.1-2.5,2.9s1.3,3,2.8,3c1.7,0,3-1.2,3-3.6V4.7V2.5c0-0.3,0.3-0.6,0.6-0.6h6.9c0.3,0,0.6,0.3,0.6,0.6v2v13.7
		c0,9.3-5.1,13.1-11.1,13.1c-5.7,0-10.4-4.4-10.4-11c0-5.9,3.9-10.5,9.8-10.5h0.3h1.2c0.3,0,0.6,0.3,0.6,0.6V17
		c0,0.3-0.3,0.6-0.6,0.6H63.4L63.4,17.6L63.4,17.6z M95.5,30.7c0,0.3-0.3,0.6-0.6,0.6H88c-0.3,0-0.6-0.3-0.6-0.6v-0.5l-0.1-10.5
		c0-1.7-0.6-2.6-1.7-2.6s-1.7,0.9-1.7,2.6v8.2v1.6v1.2c0,0.3-0.3,0.6-0.6,0.6h-6.9c-0.3,0-0.6-0.3-0.6-0.6v-1.2v-1.2v-23V2.4
		c0-0.3,0.3-0.6,0.6-0.6h6.8c0.3,0,0.6,0.3,0.6,0.6v2.9v5.9c1.2-0.9,2.6-1.5,4.2-1.5c3.5,0,7.2,2.2,7.2,8.7l0.1,11.7L95.5,30.7
		L95.5,30.7z M105.1,20.5c0,1.4,1.2,2.6,2.6,2.6s2.6-1.2,2.6-2.6s-1.2-2.6-2.6-2.6C106.3,17.9,105.1,19.1,105.1,20.5L105.1,20.5z
		 M130.7,10.3c0-0.3,0.3-0.6,0.6-0.6h6.8c0.3,0.1,0.6,0.3,0.6,0.6v6.1v6.1c0,4.8-3.2,8.7-9.5,8.7s-9.5-4-9.5-8.7v-6.2v-6.1
		c0-0.3,0.3-0.6,0.6-0.6h6.8c0.3,0,0.6,0.3,0.6,0.6v6.1v4.9c0,1.8,0.4,2.4,1.5,2.4s1.5-0.6,1.5-2.4v-4.9L130.7,10.3L130.7,10.3z
		 M154.8,9.8c0.3,0,0.6,0.3,0.6,0.6v5.8c0,0.3-0.3,0.6-0.6,0.6h-0.7h-3.5c-0.3,0-0.7,0.2-0.7,0.6c0,1.5,6.1,2.3,6.1,8.1
		c0,3.6-2.6,5.7-7.1,5.7h-7.1h-0.7c-0.3,0-0.6-0.3-0.6-0.6v-6.1c0-0.3,0.3-0.6,0.6-0.6h0.3h4c1.3,0,1.6-0.3,1.6-0.8
		c0-1.6-6.3-2.1-6.3-7.8c0-3.5,3.2-5.5,6.3-5.5h7.1H154.8L154.8,9.8z M177.6,26.3c0-1.1,0.1-3.1,0-4.2c0.1-2.3-1.3-1.5-1.8-1.2
		c-1,0.7-1.5,1.3-2.8,2.1c-1.9,1.1-3.1,1.4-4.9,1.5c-0.7,0-1.3-0.1-1.8-0.4l10.8-6c0,0,0.4-0.3,0.4-0.6c0.1-0.3,0-0.5-0.1-0.9
		c-1.6-4.1-5.1-6.9-10.5-6.9c-5.1,0-10.2,4.9-10.2,10.9c0,6.4,4.4,10.7,10.6,10.7c4.5,0,6.8-1.1,9.9-3.9c0.1-0.1,0.2-0.3,0.3-0.5
		C177.6,26.8,177.6,26.7,177.6,26.3L177.6,26.3z"/>
</g>
</svg>
