<?xml version="1.0" encoding="utf-8"?>
<!-- Generator: Adobe Illustrator 19.0.0, SVG Export Plug-In . SVG Version: 6.00 Build 0)  -->
<svg version="1.1" id="Layer_1" xmlns="http://www.w3.org/2000/svg" xmlns:xlink="http://www.w3.org/1999/xlink" x="0px" y="0px"
	 viewBox="0 0 179.6 33.1" style="enable-background:new 0 0 179.6 33.1;" xml:space="preserve">
<style type="text/css">
	.st0{fill:none;stroke:#1D1D1B;stroke-width:3.4485;stroke-linecap:round;stroke-linejoin:round;stroke-miterlimit:2.6131;}
	.st1{fill-rule:evenodd;clip-rule:evenodd;fill:#871719;}
	.st2{fill-rule:evenodd;clip-rule:evenodd;fill:#E01E26;}
</style>
<path class="st0" d="M30.5,8.7c-3.7,0.3-5.4-2.2-7.8-5.3l-0.6-1l10.1,0c0.8,0,1.3,2.5,0.8,4c-0.2,1-1.1,1.9-2.5,2.3
	C30.6,8.6,30.5,8.7,30.5,8.7L30.5,8.7z"/>
<path class="st1" d="M30.5,8.7c-3.7,0.3-5.4-2.2-7.8-5.3l-0.6-1l10.1,0c0.8,0,1.3,2.5,0.8,4c-0.2,1-1.1,1.9-2.5,2.3
	C30.6,8.6,30.5,8.7,30.5,8.7L30.5,8.7z"/>
<path class="st0" d="M167.1,16.6c1.2,0,1.9,0.3,2.5,1.3l-5.4,3c0-0.4,0-0.5,0-0.5C164.2,18.6,165.8,16.6,167.1,16.6L167.1,16.6z
	 M118.4,21c0,5.9-4.8,10.8-10.6,10.8c-5.8,0-10.6-4.9-10.6-10.8c0-6,4.8-10.8,10.6-10.8C113.6,10.2,118.4,15,118.4,21L118.4,21z
	 M13.4,18.1l-1.1,0c-0.3,0-0.6-0.3-0.6-0.6l0-6.6c0-0.3,0.3-0.6,0.6-0.6l1.2,0l0.3,0c6,0,9.8,4.6,9.8,10.5c0,6.6-4.7,11-10.4,11
	c-6,0-11.1-3.8-11.1-13.1v-10l0-3.7V3.1c0-0.3,0.3-0.6,0.6-0.6h6.9c0.3,0,0.6,0.3,0.6,0.6v2l0,0.7v14.5c0,2.5,1.3,3.6,3,3.6
	c1.5,0,2.8-1.2,2.8-3c0-1.9-1.9-3.2-2.5-2.9L13.4,18.1L13.4,18.1z M33.3,31.3c0,0.2-0.2,0.4-0.4,0.4h-7.3c-0.2,0-0.4-0.2-0.4-0.4
	l0-0.8V13.6l0-3c0-0.2,0.2-0.4,0.4-0.4h7.3c0.2,0,0.4,0.2,0.4,0.4l0,3v16.9L33.3,31.3L33.3,31.3z M41.8,31.3c0,0.2-0.1,0.4-0.3,0.4
	H35c-0.2,0-0.4-0.2-0.4-0.4l0-1.2v-6.8c-0.4-9.4,2.7-13.2,9.4-13.1c7.2,0.1,8.3,7.5,8.1,9.6c0,0.4,0,0.7,0,0.9c-0.1,0.5-0.3,1-0.6,1
	h-5.4c-0.3,0-0.6-0.3-0.6-0.6l0-0.5c0-1.8-0.6-2.9-1.9-2.8c-1.7,0.1-1.8,1.7-1.8,3.9V30L41.8,31.3L41.8,31.3z M63.5,18.1
	c-0.6-0.2-2.5,1.1-2.5,2.9c0,1.8,1.3,3,2.8,3c1.7,0,3-1.2,3-3.6l0-15.2V3c0-0.3,0.3-0.6,0.6-0.6h6.9c0.3,0,0.6,0.3,0.6,0.6v2l0,13.7
	c0,9.3-5.1,13.1-11.1,13.1c-5.7,0-10.4-4.4-10.4-11c0-5.9,3.9-10.5,9.8-10.5l0.3,0l1.2,0c0.3,0,0.6,0.3,0.6,0.6l0,6.6
	c0,0.3-0.3,0.6-0.6,0.6l-1.1,0L63.5,18.1L63.5,18.1z M95.6,31.2c0,0.3-0.3,0.6-0.6,0.6h-6.9c-0.3,0-0.6-0.3-0.6-0.6l0-0.5l-0.1-10.5
	c0-1.7-0.6-2.6-1.7-2.6c-1.1,0-1.7,0.9-1.7,2.6v8.2l0,1.6v1.2c0,0.3-0.3,0.6-0.6,0.6h-6.9c-0.3,0-0.6-0.3-0.6-0.6V30l0-1.2V5.8
	l0-2.9c0-0.3,0.3-0.6,0.6-0.6h6.8c0.3,0,0.6,0.3,0.6,0.6l0,2.9v5.9c1.2-0.9,2.6-1.5,4.2-1.5c3.5,0,7.2,2.2,7.2,8.7l0.1,11.7
	L95.6,31.2L95.6,31.2z M105.2,21c0,1.4,1.2,2.6,2.6,2.6c1.4,0,2.6-1.2,2.6-2.6c0-1.4-1.2-2.6-2.6-2.6
	C106.4,18.4,105.2,19.6,105.2,21L105.2,21z M130.8,10.8c0-0.3,0.3-0.6,0.6-0.6h6.8c0.3,0.1,0.6,0.3,0.6,0.6l0,6.1V23
	c0,4.8-3.2,8.7-9.5,8.7s-9.5-4-9.5-8.7v-6.2l0-6.1c0-0.3,0.3-0.6,0.6-0.6h6.8c0.3,0,0.6,0.3,0.6,0.6l0,6.1v4.9
	c0,1.8,0.4,2.4,1.5,2.4s1.5-0.6,1.5-2.4v-4.9L130.8,10.8L130.8,10.8z M154.9,10.3c0.3,0,0.6,0.3,0.6,0.6v5.8c0,0.3-0.3,0.6-0.6,0.6
	l-0.7,0h-3.5c-0.3,0-0.7,0.2-0.7,0.6c0,1.5,6.1,2.3,6.1,8.1c0,3.6-2.6,5.7-7.1,5.7h-7.1l-0.7,0c-0.3,0-0.6-0.3-0.6-0.6V25
	c0-0.3,0.3-0.6,0.6-0.6l0.3,0h4c1.3,0,1.6-0.3,1.6-0.8c0-1.6-6.3-2.1-6.3-7.8c0-3.5,3.2-5.5,6.3-5.5h7.1L154.9,10.3L154.9,10.3z
	 M177.7,26.8c0-1.1,0.1-3.1,0-4.2c0.1-2.3-1.3-1.5-1.8-1.2c-1,0.7-1.5,1.3-2.8,2.1c-1.9,1.1-3.1,1.4-4.9,1.5c-0.7,0-1.3-0.1-1.8-0.4
	l10.8-6c0,0,0.4-0.3,0.4-0.6c0.1-0.3,0-0.5-0.1-0.9c-1.6-4.1-5.1-6.9-10.5-6.9c-5.1,0-10.2,4.9-10.2,10.9c0,6.4,4.4,10.7,10.6,10.7
	c4.5,0,6.8-1.1,9.9-3.9c0.1-0.1,0.2-0.3,0.3-0.5C177.7,27.3,177.7,27.2,177.7,26.8L177.7,26.8z"/>
<path class="st2" d="M167.1,16.6c1.2,0,1.9,0.3,2.5,1.3l-5.4,3c0-0.4,0-0.5,0-0.5C164.2,18.6,165.8,16.6,167.1,16.6L167.1,16.6z
	 M118.4,21c0,5.9-4.8,10.8-10.6,10.8c-5.8,0-10.6-4.9-10.6-10.8c0-6,4.8-10.8,10.6-10.8C113.6,10.2,118.4,15,118.4,21L118.4,21z
	 M13.4,18.1l-1.1,0c-0.3,0-0.6-0.3-0.6-0.6l0-6.6c0-0.3,0.3-0.6,0.6-0.6l1.2,0l0.3,0c6,0,9.8,4.6,9.8,10.5c0,6.6-4.7,11-10.4,11
	c-6,0-11.1-3.8-11.1-13.1v-10l0-3.7V3.1c0-0.3,0.3-0.6,0.6-0.6h6.9c0.3,0,0.6,0.3,0.6,0.6v2l0,0.7v14.5c0,2.5,1.3,3.6,3,3.6
	c1.5,0,2.8-1.2,2.8-3c0-1.9-1.9-3.2-2.5-2.9L13.4,18.1L13.4,18.1z M33.3,31.3c0,0.2-0.2,0.4-0.4,0.4h-7.3c-0.2,0-0.4-0.2-0.4-0.4
	l0-0.8V13.6l0-3c0-0.2,0.2-0.4,0.4-0.4h7.3c0.2,0,0.4,0.2,0.4,0.4l0,3v16.9L33.3,31.3L33.3,31.3z M41.8,31.3c0,0.2-0.1,0.4-0.3,0.4
	H35c-0.2,0-0.4-0.2-0.4-0.4l0-1.2v-6.8c-0.4-9.4,2.7-13.2,9.4-13.1c7.2,0.1,8.3,7.5,8.1,9.6c0,0.4,0,0.7,0,0.9c-0.1,0.5-0.3,1-0.6,1
	h-5.4c-0.3,0-0.6-0.3-0.6-0.6l0-0.5c0-1.8-0.6-2.9-1.9-2.8c-1.7,0.1-1.8,1.7-1.8,3.9V30L41.8,31.3L41.8,31.3z M63.5,18.1
	c-0.6-0.2-2.5,1.1-2.5,2.9c0,1.8,1.3,3,2.8,3c1.7,0,3-1.2,3-3.6l0-15.2V3c0-0.3,0.3-0.6,0.6-0.6h6.9c0.3,0,0.6,0.3,0.6,0.6v2l0,13.7
	c0,9.3-5.1,13.1-11.1,13.1c-5.7,0-10.4-4.4-10.4-11c0-5.9,3.9-10.5,9.8-10.5l0.3,0l1.2,0c0.3,0,0.6,0.3,0.6,0.6l0,6.6
	c0,0.3-0.3,0.6-0.6,0.6l-1.1,0L63.5,18.1L63.5,18.1z M95.6,31.2c0,0.3-0.3,0.6-0.6,0.6h-6.9c-0.3,0-0.6-0.3-0.6-0.6l0-0.5l-0.1-10.5
	c0-1.7-0.6-2.6-1.7-2.6c-1.1,0-1.7,0.9-1.7,2.6v8.2l0,1.6v1.2c0,0.3-0.3,0.6-0.6,0.6h-6.9c-0.3,0-0.6-0.3-0.6-0.6V30l0-1.2V5.8
	l0-2.9c0-0.3,0.3-0.6,0.6-0.6h6.8c0.3,0,0.6,0.3,0.6,0.6l0,2.9v5.9c1.2-0.9,2.6-1.5,4.2-1.5c3.5,0,7.2,2.2,7.2,8.7l0.1,11.7
	L95.6,31.2L95.6,31.2z M105.2,21c0,1.4,1.2,2.6,2.6,2.6c1.4,0,2.6-1.2,2.6-2.6c0-1.4-1.2-2.6-2.6-2.6
	C106.4,18.4,105.2,19.6,105.2,21L105.2,21z M130.8,10.8c0-0.3,0.3-0.6,0.6-0.6h6.8c0.3,0.1,0.6,0.3,0.6,0.6l0,6.1V23
	c0,4.8-3.2,8.7-9.5,8.7s-9.5-4-9.5-8.7v-6.2l0-6.1c0-0.3,0.3-0.6,0.6-0.6h6.8c0.3,0,0.6,0.3,0.6,0.6l0,6.1v4.9
	c0,1.8,0.4,2.4,1.5,2.4s1.5-0.6,1.5-2.4v-4.9L130.8,10.8L130.8,10.8z M154.9,10.3c0.3,0,0.6,0.3,0.6,0.6v5.8c0,0.3-0.3,0.6-0.6,0.6
	l-0.7,0h-3.5c-0.3,0-0.7,0.2-0.7,0.6c0,1.5,6.1,2.3,6.1,8.1c0,3.6-2.6,5.7-7.1,5.7h-7.1l-0.7,0c-0.3,0-0.6-0.3-0.6-0.6V25
	c0-0.3,0.3-0.6,0.6-0.6l0.3,0h4c1.3,0,1.6-0.3,1.6-0.8c0-1.6-6.3-2.1-6.3-7.8c0-3.5,3.2-5.5,6.3-5.5h7.1L154.9,10.3L154.9,10.3z
	 M177.7,26.8c0-1.1,0.1-3.1,0-4.2c0.1-2.3-1.3-1.5-1.8-1.2c-1,0.7-1.5,1.3-2.8,2.1c-1.9,1.1-3.1,1.4-4.9,1.5c-0.7,0-1.3-0.1-1.8-0.4
	l10.8-6c0,0,0.4-0.3,0.4-0.6c0.1-0.3,0-0.5-0.1-0.9c-1.6-4.1-5.1-6.9-10.5-6.9c-5.1,0-10.2,4.9-10.2,10.9c0,6.4,4.4,10.7,10.6,10.7
	c4.5,0,6.8-1.1,9.9-3.9c0.1-0.1,0.2-0.3,0.3-0.5C177.7,27.3,177.7,27.2,177.7,26.8L177.7,26.8z"/>
</svg>
