<?xml version="1.0" encoding="utf-8"?>
<!-- Generator: Adobe Illustrator 25.0.1, SVG Export Plug-In . SVG Version: 6.00 Build 0)  -->
<svg version="1.1" id="Capa_1" xmlns="http://www.w3.org/2000/svg" xmlns:xlink="http://www.w3.org/1999/xlink" x="0px" y="0px"
	 viewBox="0 0 925.3 897.8" style="enable-background:new 0 0 925.3 897.8;" xml:space="preserve">
<style type="text/css">
	.st0{fill:#FFFFFF;}
</style>
<g>
	<g>
		<path class="st0" d="M684.7,645.5l110.5-432.6h120.9v-68H742.4l-26,102l-703.1-0.5L88,645.5H684.7L684.7,645.5L684.7,645.5z
			 M699,314.9l-67.1,262.6H144.4L95.2,314.4L699,314.9z"/>
		<path class="st0" d="M591.7,893.3c60,0,108.7-48.8,108.7-108.7s-48.8-108.7-108.7-108.7H182c-60,0-108.7,48.8-108.7,108.7
			S122,893.3,182,893.3s108.7-48.8,108.7-108.7c0-14.4-2.8-28.2-7.9-40.7h208.1c-5.1,12.6-7.9,26.3-7.9,40.7
			C482.9,844.6,531.7,893.3,591.7,893.3z M222.7,784.6c0,22.5-18.3,40.7-40.7,40.7s-40.7-18.3-40.7-40.7c0-22.5,18.3-40.7,40.7-40.7
			C204.4,743.8,222.7,762.1,222.7,784.6z M632.4,784.6c0,22.5-18.3,40.7-40.7,40.7S551,807,551,784.6c0-22.5,18.3-40.7,40.7-40.7
			S632.4,762.1,632.4,784.6z"/>
	</g>
</g>
</svg>
