<?xml version="1.0" encoding="utf-8"?>
<!-- Generator: Adobe Illustrator 25.0.1, SVG Export Plug-In . SVG Version: 6.00 Build 0)  -->
<svg version="1.1"
	 id="svg1865" inkscape:export-filename="C:\Users\suitedoalex\element-logo-0.png" xmlns:cc="http://creativecommons.org/ns#" xmlns:dc="http://purl.org/dc/elements/1.1/" xmlns:inkscape="http://www.inkscape.org/namespaces/inkscape" xmlns:rdf="http://www.w3.org/1999/02/22-rdf-syntax-ns#" xmlns:sodipodi="http://sodipodi.sourceforge.net/DTD/sodipodi-0.dtd" xmlns:svg="http://www.w3.org/2000/svg"
	 xmlns="http://www.w3.org/2000/svg" xmlns:xlink="http://www.w3.org/1999/xlink" x="0px" y="0px" viewBox="0 0 177.2 33.7"
	 style="enable-background:new 0 0 177.2 33.7;" xml:space="preserve">
<style type="text/css">
	.st0{fill:#C21E30;}
	.st1{fill:#FCFCFC;stroke:#1A1A1A;stroke-width:2;stroke-linecap:round;stroke-linejoin:round;stroke-miterlimit:10;}
</style>
<sodipodi:namedview  bordercolor="#666666" borderopacity="1.0" id="base" inkscape:current-layer="layer1" inkscape:cx="-391.28886" inkscape:cy="825.94394" inkscape:document-units="mm" inkscape:pageopacity="0.0" inkscape:pageshadow="2" inkscape:window-height="837" inkscape:window-maximized="1" inkscape:window-width="1600" inkscape:window-x="-8" inkscape:window-y="-8" inkscape:zoom="0.35" pagecolor="#ffffff" showgrid="false" units="px">
	</sodipodi:namedview>
<g id="layer1" transform="translate(0,-111.79165)" inkscape:groupmode="layer" inkscape:label="Layer 1">
	
		<g id="g986" transform="matrix(1.1399164,0,0,-1.1399164,31.095,193.72863)" inkscape:export-xdpi="66.513557" inkscape:export-ydpi="66.513557">
		<path id="path988" inkscape:connector-curvature="0" class="st0" d="M-12.2,67.9c-6.1,0-11-4.8-11-10.7s4.9-10.7,11-10.7
			s11,4.8,11,10.7C-1.3,63.1-6.2,67.9-12.2,67.9 M-10.8,49.4V53l3.5-1.3v3l-3.5,1.3v0.9l3.5-1.3v3l-3.5,1.3v1l3.5-1.3v3l-4.9,2l-5-2
			v-3l3.5,1.3v-0.9l-3.5-1.3v-3l3.5,1.3V56l-3.5-1.3v-3l3.5,1.3v-3.5c-3.7,0.6-6.5,3.8-6.5,7.7c0,4.3,3.6,7.8,8,7.8s8-3.5,8-7.8
			C-4.3,53.3-7.1,50.1-10.8,49.4"/>
	</g>
	
		<g id="g990" transform="matrix(1.1399164,0,0,-1.1399164,38.496368,195.08569)" inkscape:export-xdpi="66.513557" inkscape:export-ydpi="66.513557">
		<path id="path992" inkscape:connector-curvature="0" class="st0" d="M-11.2,67.7c-1.7,1.3-3.8,2.2-6,2.4v3
			c3.1-0.3,5.9-1.5,8.1-3.3L-11.2,67.7z"/>
	</g>
	
		<g id="g994" transform="matrix(1.1399164,0,0,-1.1399164,42.66068,195.01242)" inkscape:export-xdpi="66.513557" inkscape:export-ydpi="66.513557">
		<path id="path996" inkscape:connector-curvature="0" class="st0" d="M-10.7,67.7c1.9-2.2,3.1-5,3.4-8h-3c-0.3,2.2-1.2,4.3-2.5,5.9
			L-10.7,67.7z"/>
	</g>
	
		<g id="g998" transform="matrix(1.1399164,0,0,-1.1399164,21.655897,197.15531)" inkscape:export-xdpi="66.513557" inkscape:export-ydpi="66.513557">
		<path id="path1000" inkscape:connector-curvature="0" class="st0" d="M-13.5,67.4c-1.3-1.6-2.2-3.7-2.5-5.9h-3
			c0.3,3,1.5,5.7,3.4,8L-13.5,67.4z"/>
	</g>
	
		<g id="g1002" transform="matrix(1.1399164,0,0,-1.1399164,21.59015,193.0657)" inkscape:export-xdpi="66.513557" inkscape:export-ydpi="66.513557">
		<path id="path1004" inkscape:connector-curvature="0" class="st0" d="M-13.5,68c2.3,1.8,5.1,3.1,8.2,3.3v-3
			c-2.3-0.3-4.3-1.2-6-2.5L-13.5,68z"/>
	</g>
	
		<g id="g1006" transform="matrix(1.1399164,0,0,-1.1399164,46.026654,205.77446)" inkscape:export-xdpi="66.513557" inkscape:export-ydpi="66.513557">
		<path id="path1008" inkscape:connector-curvature="0" class="st0" d="M-10.2,66.3c-0.7-7.5-7.2-13.4-15.1-13.4
			s-14.3,5.9-15.1,13.4h3c0.7-5.9,5.9-10.4,12.1-10.4s11.3,4.6,12.1,10.5H-10.2z"/>
	</g>
	
		<path id="XMLID_53_" inkscape:connector-curvature="0" inkscape:export-xdpi="66.513557" inkscape:export-ydpi="66.513557" class="st1" d="
		M90.5,140.9c0-8.2,0-16.3,0-24.6c2.6,0,5.1,0,7.6,0.1c0.3,0,0.6,0.6,0.8,1c1.5,4.9,3,9.8,4.8,14.9c0.2-0.5,0.3-0.9,0.5-1.3
		c1.4-4.5,2.7-9,4.1-13.5c0.2-0.8,0.6-1,1.4-1c2.3,0.1,4.6,0,7,0c0,8.3,0,16.4,0,24.6c-1.9,0-3.8,0-5.7,0c0-5.8,0-11.7,0-17.6
		c-0.1,0-0.1,0-0.1-0.1c-1.7,5.9-3.4,11.8-5.1,17.7c-1.2,0-2.3,0.1-3.5-0.1c-0.3,0-0.8-0.5-0.9-0.9c-1.5-5.2-3-10.3-4.5-15.5
		c-0.1-0.4-0.2-0.8-0.5-1.2c0,5.8,0,11.6,0,17.5C94.4,140.9,92.5,140.9,90.5,140.9L90.5,140.9z"/>
	
		<path id="XMLID_49_" inkscape:connector-curvature="0" inkscape:export-xdpi="66.513557" inkscape:export-ydpi="66.513557" class="st1" d="
		M142.4,126.2c0,5.1,0,9.8,0,14.7c-1.9,0-3.8,0-5.8,0c0-8.1,0-16.3,0-24.6c1.6,0,3.2-0.1,4.8,0.1c0.4,0,0.9,0.5,1.1,0.9
		c2.7,4.3,5.4,8.7,8.1,13.1c0.2,0.4,0.5,0.8,0.9,1.3c0-5.2,0-10.2,0-15.3c1.9,0,3.8,0,5.8,0c0,8.1,0,16.3,0,24.6
		c-1.6,0-3.3,0.1-4.9-0.1c-0.4,0-0.8-0.5-1-0.9c-2.7-4.2-5.2-8.4-7.9-12.6C143.1,127.1,142.8,126.7,142.4,126.2L142.4,126.2z"/>
	
		<path id="XMLID_48_" inkscape:connector-curvature="0" inkscape:export-xdpi="66.513557" inkscape:export-ydpi="66.513557" class="st1" d="
		M87.3,135.4c0,1.9,0,3.7,0,5.5c-4.5,0-9,0-13.5,0c0-8.2,0-16.3,0-24.6c4.5,0,8.9,0,13.5,0c0,1.8,0,3.5,0,5.4c-2.5,0-4.9,0-7.4,0
		c0,1.3,0,2.5,0,3.9c2.4,0,4.8,0,7.3,0c0,1.9,0,3.6,0,5.5c-2.4,0-4.8,0-7.3,0c0,1.5,0,2.8,0,4.2C82.4,135.4,84.8,135.4,87.3,135.4
		L87.3,135.4z"/>
	
		<path id="XMLID_47_" inkscape:connector-curvature="0" inkscape:export-xdpi="66.513557" inkscape:export-ydpi="66.513557" class="st1" d="
		M119.7,116.3c4.5,0,8.9,0,13.5,0c0,1.8,0,3.5,0,5.4c-2.5,0-4.9,0-7.5,0c0,1.3,0,2.6,0,3.8c2.4,0,4.8,0,7.2,0c0,1.9,0,3.6,0,5.5
		c-2.4,0-4.7,0-7.2,0c0,1.4,0,2.8,0,4.3c2.5,0,5,0,7.5,0c0,1.9,0,3.6,0,5.4c-4.5,0-9,0-13.5,0C119.7,132.7,119.7,124.6,119.7,116.3
		L119.7,116.3z"/>
	
		<path id="XMLID_46_" inkscape:connector-curvature="0" inkscape:export-xdpi="66.513557" inkscape:export-ydpi="66.513557" class="st1" d="
		M40.4,140.9c0-8.1,0-16.3,0-24.5c4.5,0,9,0,13.6,0c0,1.7,0,3.5,0,5.4c-2.5,0-5,0-7.6,0c0,1.3,0,2.6,0,3.9c2.4,0,4.8,0,7.3,0
		c0,1.9,0,3.6,0,5.6c-2.4,0-4.9,0-7.4,0c0,1.5,0,2.8,0,4.2c2.6,0,5.1,0,7.7,0c0,1.9,0,3.6,0,5.5C49.5,140.9,45,140.9,40.4,140.9
		L40.4,140.9z"/>
	
		<path id="XMLID_45_" inkscape:connector-curvature="0" inkscape:export-xdpi="66.513557" inkscape:export-ydpi="66.513557" class="st1" d="
		M176.2,116.4c0,1.8,0,3.5,0,5.4c-1.6,0-3.1,0-4.7,0c0,3.3,0,6.4,0,9.6c0,3.1,0,6.3,0,9.5c-2.1,0-4.1,0-6.3,0c0-3.1,0-6.3,0-9.4
		c0-3.1,0-6.3,0-9.6c-1.6,0-3.2,0-4.9,0c0-1.9,0-3.6,0-5.5C165.5,116.4,170.8,116.4,176.2,116.4L176.2,116.4z"/>
	
		<path id="XMLID_44_" inkscape:connector-curvature="0" inkscape:export-xdpi="66.513557" inkscape:export-ydpi="66.513557" class="st1" d="
		M63.4,116.4c0,6.3,0,12.6,0,19c2.5,0,4.8,0,7.3,0c0,1.9,0,3.6,0,5.4c-4.5,0-8.9,0-13.5,0c0-8.1,0-16.2,0-24.5
		C59.2,116.4,61.2,116.4,63.4,116.4z"/>
</g>
</svg>
