<?xml version="1.0" encoding="utf-8"?>
<!-- Generator: Adobe Illustrator 25.0.1, SVG Export Plug-In . SVG Version: 6.00 Build 0)  -->
<svg version="1.1"
	 id="svg1865" xmlns:cc="http://creativecommons.org/ns#" xmlns:dc="http://purl.org/dc/elements/1.1/" xmlns:inkscape="http://www.inkscape.org/namespaces/inkscape" xmlns:rdf="http://www.w3.org/1999/02/22-rdf-syntax-ns#" xmlns:sodipodi="http://sodipodi.sourceforge.net/DTD/sodipodi-0.dtd" xmlns:svg="http://www.w3.org/2000/svg"
	 xmlns="http://www.w3.org/2000/svg" xmlns:xlink="http://www.w3.org/1999/xlink" x="0px" y="0px" viewBox="0 0 140 33.7"
	 style="enable-background:new 0 0 140 33.7;" xml:space="preserve">
<style type="text/css">
	.st0{fill:#FCFCFC;}
</style>
<sodipodi:namedview  bordercolor="#666666" borderopacity="1.0" id="base" inkscape:current-layer="layer1" inkscape:cx="-391.28886" inkscape:cy="825.94394" inkscape:document-units="mm" inkscape:pageopacity="0.0" inkscape:pageshadow="2" inkscape:window-height="837" inkscape:window-maximized="1" inkscape:window-width="1600" inkscape:window-x="-8" inkscape:window-y="-8" inkscape:zoom="0.35" pagecolor="#ffffff" showgrid="false" units="px">
	</sodipodi:namedview>
<g id="layer1" transform="translate(0,-111.79165)" inkscape:groupmode="layer" inkscape:label="Layer 1">
	
		<path id="XMLID_53_" inkscape:connector-curvature="0" inkscape:export-xdpi="66.513557" inkscape:export-ydpi="66.513557" class="st0" d="
		M53.3,140.9c0-8.2,0-16.3,0-24.6c2.6,0,5.1,0,7.6,0.1c0.3,0,0.6,0.6,0.8,1c1.5,4.9,3,9.8,4.8,14.9c0.2-0.5,0.3-0.9,0.5-1.3
		c1.4-4.5,2.7-9,4.1-13.5c0.2-0.8,0.6-1,1.4-1c2.3,0.1,4.6,0,7,0c0,8.3,0,16.4,0,24.6c-1.9,0-3.8,0-5.7,0c0-5.8,0-11.7,0-17.6
		c-0.1,0-0.1,0-0.1-0.1c-1.7,5.9-3.4,11.8-5.1,17.7c-1.2,0-2.3,0.1-3.5-0.1c-0.3,0-0.8-0.5-0.9-0.9c-1.5-5.2-3-10.3-4.5-15.5
		c-0.1-0.4-0.2-0.8-0.5-1.2c0,5.8,0,11.6,0,17.5C57.2,140.9,55.3,140.9,53.3,140.9L53.3,140.9z"/>
	
		<path id="XMLID_49_" inkscape:connector-curvature="0" inkscape:export-xdpi="66.513557" inkscape:export-ydpi="66.513557" class="st0" d="
		M105.2,126.2c0,5.1,0,9.8,0,14.7c-1.9,0-3.8,0-5.8,0c0-8.1,0-16.3,0-24.6c1.6,0,3.2-0.1,4.8,0.1c0.4,0,0.9,0.5,1.1,0.9
		c2.7,4.3,5.4,8.7,8.1,13.1c0.2,0.4,0.5,0.8,0.9,1.3c0-5.2,0-10.2,0-15.3c1.9,0,3.8,0,5.8,0c0,8.1,0,16.3,0,24.6
		c-1.6,0-3.3,0.1-4.9-0.1c-0.4,0-0.8-0.5-1-0.9c-2.7-4.2-5.2-8.4-7.9-12.6C105.9,127.1,105.6,126.7,105.2,126.2L105.2,126.2z"/>
	
		<path id="XMLID_48_" inkscape:connector-curvature="0" inkscape:export-xdpi="66.513557" inkscape:export-ydpi="66.513557" class="st0" d="
		M50.1,135.4c0,1.9,0,3.7,0,5.5c-4.5,0-9,0-13.5,0c0-8.2,0-16.3,0-24.6c4.5,0,8.9,0,13.5,0c0,1.8,0,3.5,0,5.4c-2.5,0-4.9,0-7.4,0
		c0,1.3,0,2.5,0,3.9c2.4,0,4.8,0,7.3,0c0,1.9,0,3.6,0,5.5c-2.4,0-4.8,0-7.3,0c0,1.5,0,2.8,0,4.2C45.2,135.4,47.6,135.4,50.1,135.4
		L50.1,135.4z"/>
	
		<path id="XMLID_47_" inkscape:connector-curvature="0" inkscape:export-xdpi="66.513557" inkscape:export-ydpi="66.513557" class="st0" d="
		M82.5,116.3c4.5,0,8.9,0,13.5,0c0,1.8,0,3.5,0,5.4c-2.5,0-4.9,0-7.5,0c0,1.3,0,2.6,0,3.8c2.4,0,4.8,0,7.2,0c0,1.9,0,3.6,0,5.5
		c-2.4,0-4.7,0-7.2,0c0,1.4,0,2.8,0,4.3c2.5,0,5,0,7.5,0c0,1.9,0,3.6,0,5.4c-4.5,0-9,0-13.5,0C82.5,132.7,82.5,124.6,82.5,116.3
		L82.5,116.3z"/>
	
		<path id="XMLID_46_" inkscape:connector-curvature="0" inkscape:export-xdpi="66.513557" inkscape:export-ydpi="66.513557" class="st0" d="
		M3.2,140.9c0-8.1,0-16.3,0-24.5c4.5,0,9,0,13.6,0c0,1.7,0,3.5,0,5.4c-2.5,0-5,0-7.6,0c0,1.3,0,2.6,0,3.9c2.4,0,4.8,0,7.3,0
		c0,1.9,0,3.6,0,5.6c-2.4,0-4.9,0-7.4,0c0,1.5,0,2.8,0,4.2c2.6,0,5.1,0,7.7,0c0,1.9,0,3.6,0,5.5C12.3,140.9,7.8,140.9,3.2,140.9
		L3.2,140.9z"/>
	
		<path id="XMLID_45_" inkscape:connector-curvature="0" inkscape:export-xdpi="66.513557" inkscape:export-ydpi="66.513557" class="st0" d="
		M139,116.4c0,1.8,0,3.5,0,5.4c-1.6,0-3.1,0-4.7,0c0,3.3,0,6.4,0,9.6c0,3.1,0,6.3,0,9.5c-2.1,0-4.1,0-6.3,0c0-3.1,0-6.3,0-9.4
		c0-3.1,0-6.3,0-9.6c-1.6,0-3.2,0-4.9,0c0-1.9,0-3.6,0-5.5C128.3,116.4,133.6,116.4,139,116.4L139,116.4z"/>
	
		<path id="XMLID_44_" inkscape:connector-curvature="0" inkscape:export-xdpi="66.513557" inkscape:export-ydpi="66.513557" class="st0" d="
		M26.2,116.4c0,6.3,0,12.6,0,19c2.5,0,4.8,0,7.3,0c0,1.9,0,3.6,0,5.4c-4.5,0-8.9,0-13.5,0c0-8.1,0-16.2,0-24.5
		C22,116.4,24,116.4,26.2,116.4z"/>
</g>
</svg>
