<?xml version="1.0" encoding="utf-8"?>
<!-- Generator: Adobe Illustrator 25.0.1, SVG Export Plug-In . SVG Version: 6.00 Build 0)  -->
<svg version="1.1" id="Layer_1" xmlns="http://www.w3.org/2000/svg" xmlns:xlink="http://www.w3.org/1999/xlink" x="0px" y="0px"
	 viewBox="0 0 179.4 26.7" style="enable-background:new 0 0 179.4 26.7;" xml:space="preserve">
<style type="text/css">
	.st0{fill:#FFF200;}
</style>
<g>
	<path d="M1.5,21L0,23.4l2.1,3.3l13,0.1l0.7-0.1l0.6-0.2l0.6-0.2l0.6-0.3l0.4-0.4l0.4-0.4l0.8-1l1.1,2.6l21-0.1h4.9l3.3-5.8h-4.8
		l-1.1,1.9h-3.5l1.1-1.9h-2.1l-0.5,1.9l-19.2,0.1l1.9-1.9h-5.3l-0.6,0.8l-0.8,0.6l-0.4,0.2l-0.5,0.2l-0.6,0.1h-0.6H1.8L3,21L1.5,21
		L1.5,21z M50.8,21v1.9l2.6,3.9h4.8l3.3-5.8h-4.8l-1.1,1.9h-3.5l0.1-1.9H50.8L50.8,21z M63.6,21l-1.1,1.9l2.5,3.8l4.9,0.1l0.6-1
		l0.6,0.9l21.7,0.1l1.5-5.8H90l-0.5,1.9l-19.2-0.1l1.8-1.8h-3.7l-1,1.9h-3.6l1.1-1.9L63.6,21L63.6,21z M98.6,21l-0.1,0.6l0.1,0.4
		l0.1,0.5l0.3,0.5l1.2,1.9l0.6,0.6l0.6,0.6l0.4,0.2l0.5,0.2l0.5,0.2l0.8,0.1l9.2-0.1l0.6-1.1l0.8,1.1h4.8l3.3-5.7h-4.8l-1.1,1.9
		h-3.5L114,21h-2.8l-1.1,1.9l-8.4,0.1l-0.8-0.1l-0.4-0.2l-0.3-0.2l-0.3-0.2l-0.1-0.3l-0.2-0.4l0.1-0.6L98.6,21L98.6,21z M125.8,21
		l0.6,2.9l1.9,2.9h5.1l-0.6-3.6l1,1.5l0.5,0.6l0.6,0.6l0.4,0.3l0.5,0.2l0.6,0.2l0.6,0.1h10.5l0.8-0.1l0.7-0.2l0.6-0.3l0.5-0.4
		l0.8,1.1l15.5,0.1l3.2-5.5l-0.2-0.4h-4l-1.1,1.9l-14.5-0.1l1.1-1.9h-2.6l-0.6,0.7l-0.8,0.6l-0.4,0.2l-0.5,0.2l-0.6,0.1l-0.6,0.1
		l-9.6-0.1l-0.7-0.1l-0.4-0.2l-0.3-0.1l-0.2-0.2l-0.2-0.3v-0.4V21h-3.3l0.3,1.9h-2.9l-0.2-1.9C127.1,21,125.8,21,125.8,21z"/>
	<path d="M160.7,20.1v-3.9l13.9-12l1.6-2.8h-13.6L161,4.2h9.2l-9.5,7.9v-1.4l3.2-2.7h-1.9l-0.6-1.1l-0.6,1V0.1h0.3l0.4,0.6l0.4-0.6
		l15.7,0.1l1.9,3.8l-2.3,4.3l-12.6,10.7h3.4l1.4,2.1h-4l0.5-0.9H160.7z M160.7,0.1v7.8l-3.2,5.5l3.2-2.7v1.4l-9.4,8l-0.5,0.9h-2.6
		l0.7-1l0.4-0.8l10.5-17.9h-3.6l-10,17.1l-0.3,0.5l-0.6,0.6l-0.3,0.2l-0.4,0.2L144,20l-0.6,0.1l-4.6-0.1l-0.6-0.1l-0.2-0.1l-0.2-0.2
		l-0.1-0.2v-0.3v-0.3l0.2-0.5l9.9-17.1h-3.6l-10,17.5l-0.5,0.8l-0.4,0.8l-0.2,0.6h-1v-0.8l0.2-0.6h-0.2V15l0.2-0.2l0.5-0.6l0.4-0.6
		l0.6-1l4.2-7.3l0.4-0.7l0.5-0.9l0.2-0.8L139,2.4l-0.2-0.5l-0.3-0.2l-0.5-0.2l-0.5-0.1l-0.5-0.1h-4.9V0h5.2l0.5,0.1l0.4,0.1l0.4,0.2
		l0.3,0.2l0.6,0.6l0.4,0.5l1.5,2.2l2.2-3.8h5.5l2.3,3.3l-8.9,15.3h1.1l0.6-0.1l0.5-0.2l0.3-0.4l0.2-0.3L155.5,0L160.7,0.1L160.7,0.1
		z M160.7,16.2l-4.5,3.9h4.5V16.2L160.7,16.2z M132.2,9.2l2.5-4.1l0.2-0.4l0.1-0.3l-0.2-0.2l-0.1-0.2L134.1,4h-0.5h-1.4V9.2z
		 M132.2,0v1.2h-2.7V0H132.2L132.2,0z M132.2,4v5.2l-1.2,2.1l-0.4,0.8l-0.3,0.3l-0.3,0.3l-0.4,0.2v-1.4l0.1-0.2l0.3-0.4l1.8-3.2
		h-1.9l-0.2,0.6V4H132.2L132.2,4z M132.2,15v4.6l0,0h-0.2l0.2,0.8l0.1-0.2V21h-2.3l-0.4-2.2v-2.6l0.8-0.1l0.8-0.3l0.8-0.4L132.2,15z
		 M129.5,0v1.2h-4.2l-2.9,5.2V1.5l0.2-0.3h-0.2V0h2.3H129.5L129.5,0z M129.5,4h-2.3l-4.9,8.7v0.8h5.2h0.8l0.6-0.2l0.6-0.2l0.1-0.1
		v-1.4l-0.3,0.2l-0.6,0.3l-0.3,0.1h-0.4h-0.6l2.2-3.8V4L129.5,4z M129.5,16.2v2.6l-0.5-2.5h0.3L129.5,16.2L129.5,16.2z M122.3,21
		v-4.7h3.8l1,4.7h-1.3l-0.2-0.9h-2.9L122.3,21z M122.3,0v1.2h-3.5V0H122.3L122.3,0z M122.3,1.5v4.9l-3.5,6.1v-2.5l1.3-2.3l-1.3,0.1
		V4.1l2.1-0.1L122.3,1.5L122.3,1.5z M122.3,12.7v0.8h-0.5L122.3,12.7L122.3,12.7z M122.3,16.2V21h-0.1h-3.4v-2.2l1.5-2.5H122.3z
		 M118.8,0v1.2l-4.2,0.1V0H118.8L118.8,0z M118.8,4.1v3.8h-1.1H117l-0.6,0.2l-0.5,0.2l-0.5,0.3L115,8.9l-0.2,0.3V4.1h0.4H118.8
		L118.8,4.1z M118.8,10.1v2.5l-4.2,7.3v-2.4L118.8,10.1L118.8,10.1z M118.8,18.8l-1.3,2.2h1.3V18.8z M98.9,2.7l0.3,0.5l-0.3,1.2V2.7
		L98.9,2.7z M114.7,0h-1.8l-1.1,0.2l-1,0.4L110,1.1l-0.6,0.6l-0.6,0.6l-0.4,0.6l-0.6,1.2l-8,14.2L99,19.8l-0.1,0.1V21h0.9l0.2-0.6
		l0.4-0.7l0.4-0.8L108.7,5l0.6-1.1l0.4-0.6l0.5-0.6l0.6-0.6l0.6-0.4l0.9-0.3l0.9-0.1h1.4L114.7,0L114.7,0z M114.7,4.1v5.2l-0.1,0.1
		l-0.4,0.6l-5.1,8.8h4.7l0.8-1.3v2.4l-0.6,1.1h-2.8l0.5-0.9h-6.3h-0.6l-0.3-0.2l-0.2-0.1l-0.1-0.2l-0.1-0.2l0.1-0.4l0.2-0.5l7-12.3
		l0.5-0.6l0.3-0.4l0.3-0.3l0.5-0.3l0.5-0.2l0.6-0.2L114.7,4.1L114.7,4.1z M85.9,0h1.7l1.7,2.7L92,0l5.2,0.1l1.7,2.6v1.7l-4.5,16.6
		H90l5.5-19.7h-2.9l-6.7,6.4V2.9l1-1.5h-1V0L85.9,0z M98.9,19.9l-0.2,0.6L98.6,21h0.3L98.9,19.9L98.9,19.9z M85.9,19.8h1.4l3.4-12.6
		l-4.8,4.6v5.9l0.9-0.9l-0.5,1.8l-0.4-0.1V19.8L85.9,19.8z M84.3,0h1.6v1.3h-1.6V0L84.3,0z M85.9,7.7l-1.6,1.6V4.1h1l0.6-1.2
		L85.9,7.7L85.9,7.7z M85.9,11.8v5.9l-0.8,0.8h0.8v1.3h-1.6v-6.4L85.9,11.8z M80.5,0h3.8v1.3h-3.8V0L80.5,0z M84.3,9.3l-3.8,3.6
		v-1.6l3.7-3.6H81l-0.5,0.8V4.1h3.8L84.3,9.3L84.3,9.3z M84.3,13.5v6.4h-3.8v-2.7L84.3,13.5z M48.6,5.4l3-5.4h5.1l1.8,2.7l-0.1,6.6
		L63.9,0h6.5h10.1v1.3L70,1.2L68.3,4h6.5L65,21h-1.4l7.8-13.4h-2.1L61.5,21h-4.8L68,1.2h-3.5L55.4,17l0.4-15.7h-3.3L48.6,8V5.4
		L48.6,5.4z M80.5,12.9v-1.6l-3.7,3.5l3.7-6.4V4.1h-2.3L68.4,21h3.7L80.5,12.9L80.5,12.9z M80.5,17.1l-2.7,2.6l2.7,0.1V17.1
		L80.5,17.1z M48.6,21h1l1.3-2.2L50.9,21h1.4l0.3-13.6l-3.9,6.9L48.6,21L48.6,21z M35.1,4.2h1.1L38,1.3h-2.9V0h3.7l0.9,1.4L41.1,0h5
		l2.2,3.1l-1.5,5.6l1.8-3.3V8l-7.3,13h-2.1l5.3-19.7h-2.9l-6.5,6.5L35.1,4.2L35.1,4.2z M48.6,14.2L44.8,21h3.8V14.2L48.6,14.2z
		 M35.1,19.8h1.4l3.3-12.6l-4.6,4.6v5.8l0.8-0.8l-0.4,1.7h-0.4L35.1,19.8L35.1,19.8z M33.4,4.1l1.7,0.1v3.5l-1.7,1.6V4.1L33.4,4.1z
		 M35.1,1.3h-1.7V0h1.7V1.3L35.1,1.3z M35.1,11.9v5.8l-0.9,0.9h0.9v1.2h-1.7v-6.3L35.1,11.9z M27.8,4.2l0.6-0.1h4.9v5.2l-5.5,5.4V13
		l5.3-5.1h-2h-0.7l-0.8,0.2l-0.5,0.2l-0.6,0.3L28.1,9l-0.3,0.3L27.8,4.2L27.8,4.2z M33.4,1.3l-5.5-0.1V0h5.5V1.3L33.4,1.3z
		 M33.4,13.6L27.8,19v0.9l5.5-0.1V13.6z M16.2,21l0.5-0.6l7.8-13.6l0.7-1.1l0.4-0.4L26,4.8l0.5-0.3l0.6-0.2l0.6-0.2h0.1v5.2
		l-0.1,0.2l-0.6,1l-4.4,7.7l5.2-5.1v1.6L21.4,21H16.2L16.2,21z M27.8,1.2V0H26l-0.8,0.1l-0.8,0.2l-0.6,0.2l-0.6,0.3l-0.5,0.4
		l-0.4,0.5l-0.8,1.1L14,16.2l-0.8,1l-0.3,0.4L12.4,18l-0.5,0.2l-0.6,0.3l-0.6,0.1L10,18.8H3L1.5,21H3l0.6-0.9h6.8l0.8-0.1l0.8-0.2
		l0.6-0.2l0.6-0.3l0.4-0.4l0.5-0.5l0.8-1.1l7.7-13.5l0.8-1.1l0.3-0.4L24.1,2l0.5-0.3l0.6-0.2l0.6-0.2l0.8-0.1L27.8,1.2L27.8,1.2z
		 M27.8,19l-0.9,0.9h0.9V19z"/>
	<path class="st0" d="M174.5,4.2l1.6-2.8h-13.6L161,4.2h9.2l-15.4,13V23h9.6l1.5-2.9h-9.6L174.5,4.2L174.5,4.2z M154.7,9.9V3.8
		l1.5-2.5h3.6L154.7,9.9z M154.7,17.1l-3.4,2.9l-1.5,2.8l5,0.1L154.7,17.1L154.7,17.1z M154.7,3.8v6.1l-5.4,9.3l-0.6,1.1l-0.4,0.6
		l-0.5,0.6l-0.6,0.6l-0.8,0.5l-0.8,0.2l-1,0.2l-9.6-0.1l-0.5-0.1l-0.5-0.1l-0.2-0.1v-3.4l0.2-0.4l10-17.5h3.6L138,18.4l-0.2,0.5v0.3
		v0.3l0.1,0.2l0.2,0.2l0.2,0.1l0.6,0.1l4.6,0.1L144,20l0.6-0.1l0.4-0.2l0.3-0.2l0.6-0.6l0.3-0.5L154.7,3.8L154.7,3.8z M134.1,12.3
		l4-7l0.4-0.7l0.5-0.9l0.2-0.8L139,2.4l-0.2-0.5l-0.3-0.2l-0.5-0.2l-0.5-0.1l-0.5-0.1h-3v2.8l0,0l0.6,0.1l0.1,0.2l0.2,0.2l-0.1,0.3
		l-0.2,0.4l-0.6,1L134.1,12.3L134.1,12.3z M134.1,1.2V4h-0.5h-6.4l-5.1,8.9V6.7l3.1-5.5L134.1,1.2L134.1,1.2z M134.1,6.1l-3.1,5.2
		l-0.4,0.8l-0.3,0.3l-0.3,0.3l-0.5,0.3l-0.6,0.2l-0.6,0.2h-0.8h-5.4v2.8h4l1.2,6.6h2.9l-1.2-6.6h0.3l1-0.2l0.8-0.3l0.8-0.4l0.6-0.6
		l0.5-0.6l0.4-0.6l0.6-1l0.2-0.2V6.1L134.1,6.1z M134.1,19.1v3.4l-0.2-0.1l-0.4-0.3l-0.2-0.4V21l0.2-0.8l0.4-0.8L134.1,19.1
		L134.1,19.1z M122.2,1.8l0.3-0.6h-0.3V1.8z M122.2,1.2v0.6L120.9,4l-5.9,0.1h-0.8l-0.6,0.2l-0.5,0.2l-0.5,0.3l-0.3,0.3L112,5.5
		l-0.5,0.6l-7,12.3l-0.2,0.5l-0.1,0.4l0.1,0.2l0.1,0.2l0.2,0.1l0.3,0.2h0.6h6.3l-1.5,2.8l-8.4,0.1l-0.5-0.1l-0.5-0.1l-0.4-0.2
		l-0.4-0.2l-0.2-0.5l-0.1-0.6l0.2-0.7l0.4-0.9l0.4-0.8L108.8,5l0.6-1.1l0.4-0.6l0.5-0.6l0.6-0.6l0.6-0.4l0.9-0.3l0.9-0.1L122.2,1.2
		L122.2,1.2z M122.2,6.7l-9.2,16.2h3.5l3.8-6.6h1.9v-2.8h-0.3l0.3-0.6V6.7L122.2,6.7z M84.3,22.8v-3h3l3.4-12.6l-6.5,6.2V9.3l8.3-8
		h2.9l-5.9,21.6H84.3L84.3,22.8z M84.3,4.1h1l1.6-2.8h-2.6L84.3,4.1L84.3,4.1z M84.3,1.3v2.8h-6L67.5,22.8H66v-3.6L74.8,4h-6.5
		L70,1.2L84.3,1.3L84.3,1.3z M84.3,9.3l-14,13.5l14,0.1v-3l-6.5-0.1l6.5-6.3L84.3,9.3L84.3,9.3z M66,4.8l2-3.6h-2V4.8z M66,1.2v3.6
		l-10.3,18h-3.5l0.4-15.5l-8.8,15.6h-1.4v-3.8L52.5,1.3h3.3L55.4,17l9.2-15.8H66L66,1.2z M66,19.3l-2.1,3.6H66V19.3L66,19.3z
		 M42.4,9.2l2.1-7.9h-2.1V9.2z M42.4,1.2v7.9l-3.7,13.7l-5.3,0.1v-3.1h3.1l3.3-12.6l-6.4,6.3V9.3l8.2-8.1L42.4,1.2L42.4,1.2z
		 M42.4,19.2l-2.1,3.8h2.1V19.2L42.4,19.2z M33.4,4.1l2.9,0.1L38,1.3h-4.7V4.1z M33.4,1.3v2.8h-4.9l-0.7,0.1l-0.6,0.2l-0.6,0.2
		l-0.5,0.3l-0.4,0.4l-0.4,0.4l-0.7,1.1l-7.9,13.6l-0.8,1.1l-0.4,0.4L15,22.1l-0.5,0.3l-0.6,0.2l-0.6,0.2h-0.6H1.8l1.9-2.8h6.8
		l0.8-0.1l0.8-0.2l0.6-0.2l0.6-0.3l0.4-0.4l0.5-0.5l0.8-1.1l7.7-13.5l0.8-1.1l0.3-0.4L24.1,2l0.5-0.3l0.6-0.2l0.6-0.2l0.8-0.1
		L33.4,1.3L33.4,1.3z M33.4,9.3L19.5,22.9h13.9v-3.1l-6.5,0.1l6.5-6.4V9.3z"/>
</g>
</svg>
