<?xml version="1.0" encoding="utf-8"?>
<!-- Generator: Adobe Illustrator 25.0.1, SVG Export Plug-In . SVG Version: 6.00 Build 0)  -->
<svg version="1.1" id="Layer_1" xmlns="http://www.w3.org/2000/svg" xmlns:xlink="http://www.w3.org/1999/xlink" x="0px" y="0px"
	 viewBox="0 0 179.4 26.7" style="enable-background:new 0 0 179.4 26.7;" xml:space="preserve">
<style type="text/css">
	.st0{fill:#FFFFFF;}
</style>
<path class="st0" d="M175.2,5.4l1.6-2.8h-13.6l-1.5,2.8h9.2l-15.4,13v5.8h9.6l1.5-2.9H157L175.2,5.4L175.2,5.4z M155.4,11.1V5
	l1.5-2.5h3.6L155.4,11.1z M155.5,18.4l-3.4,2.9l-1.5,2.8l5,0.1L155.5,18.4L155.5,18.4z M155.4,5v6.1l-5.4,9.3l-0.6,1.1l-0.4,0.6
	l-0.5,0.6l-0.6,0.6l-0.8,0.5l-0.8,0.2l-1,0.2l-9.6-0.1l-0.5-0.1l-0.5-0.1l-0.2-0.1v-3.4l0.2-0.4l10-17.5h3.6l-9.6,17.1l-0.2,0.5v0.3
	v0.3l0.1,0.2l0.2,0.2l0.2,0.1l0.6,0.1l4.6,0.1l0.5-0.2l0.6-0.1l0.4-0.2l0.3-0.2l0.6-0.6l0.3-0.5L155.4,5L155.4,5z M134.9,13.6
	l4.1-7.2l0.4-0.7l0.5-0.9l0.2-0.8l-0.2-0.5L139.8,3l-0.3-0.2L139,2.6l-0.5-0.1L138,2.4h-3v2.8l0,0l0.6,0.1l0.1,0.2l0.2,0.2L135.8,6
	l-0.2,0.4l-0.7,1L134.9,13.6L134.9,13.6z M134.9,2.4v2.8h-0.5H128l-5.1,8.9V7.9l3.1-5.5H134.9L134.9,2.4z M134.9,7.4l-3.1,5.2
	l-0.4,0.8l-0.3,0.3l-0.3,0.3l-0.5,0.3l-0.6,0.2l-0.6,0.2h-0.8h-5.4v2.8h4l1.2,6.6h2.9l-1.2-6.6h0.3l1-0.2l0.8-0.3l0.8-0.4l0.6-0.6
	l0.5-0.6l0.4-0.6l0.6-1l0.2-0.2L134.9,7.4L134.9,7.4z M134.9,20.3v3.4l-0.2-0.1l-0.4-0.3l-0.2-0.4v-0.7l0.2-0.8l0.4-0.8L134.9,20.3
	L134.9,20.3z M122.9,3l0.3-0.6h-0.3V3z M122.9,2.4V3l-1.3,2.2l-5.9,0.1h-0.8l-0.6,0.2l-0.5,0.2L113.3,6L113,6.3l-0.3,0.4l-0.5,0.6
	l-7,12.3l-0.2,0.5l-0.1,0.4l0.1,0.2l0.1,0.2l0.2,0.1l0.3,0.2h0.6h6.3L111,24l-8.4,0.1l-0.5-0.1l-0.5-0.1l-0.4-0.2l-0.4-0.2l-0.2-0.5
	l-0.1-0.6l0.2-0.7l0.4-0.9l0.4-0.8l8-13.8l0.6-1.1l0.4-0.6l0.5-0.6l0.6-0.6l0.6-0.4l0.9-0.3l0.9-0.1L122.9,2.4L122.9,2.4z
	 M122.9,7.9l-9.2,16.2h3.5l3.8-6.6h1.9v-2.8h-0.3l0.3-0.6L122.9,7.9L122.9,7.9z M85,5.4h1l1.6-2.8H85V5.4L85,5.4z M85,2.6v2.8h-6
	L68.2,24.1h-1.5v-3.6l8.8-15.2H69l1.7-2.8L85,2.6L85,2.6z M85,24v-3h3l3.4-12.6l-6.5,6.2v-4.1l8.3-8h2.9l-5.9,21.6H85V24z
	 M84.9,10.5L70.9,24L85,24.1V21h-6.6l6.5-6.4V10.5L84.9,10.5z M34.2,23.9v-3h3l3.4-12.6l-6.5,6.2v-4.1l8.3-8h2.9L39.4,24h-5.2V23.9z
	 M34.1,10.4l-14,13.5L34.2,24v-3.1h-6.6l6.5-6.4V10.4L34.1,10.4z M66.7,6l2-3.6h-2V6z M66.7,2.4v3.7l-10.3,18h-3.5l0.4-15.5
	l-8.8,15.6h-1.4v-3.8L53.2,2.6h3.3l-0.4,15.7l9.2-15.9L66.7,2.4L66.7,2.4z M66.7,20.5l-2.1,3.6h2.1V20.5L66.7,20.5z M43.1,20.4
	L41,24.2h2.1V20.4L43.1,20.4z M34,5.3l3,0.1l1.7-2.9H34V5.3L34,5.3z M34,2.5v2.8h-4.8l-0.7,0.1l-0.6,0.2l-0.6,0.2l-0.5,0.3l-0.4,0.4
	L26,6.9L25.3,8l-7.9,13.6l-0.8,1.1l-0.4,0.4l-0.5,0.2l-0.5,0.3l-0.6,0.2L14,24h-0.6H2.5l1.9-2.8h6.8l0.8-0.1l0.8-0.2l0.6-0.2
	l0.6-0.3l0.4-0.4l0.5-0.5l0.8-1.1l7.7-13.5l0.8-1.1l0.3-0.4l0.3-0.2l0.5-0.3l0.6-0.2l0.6-0.2l0.8-0.1L34,2.5C34.1,2.5,34,2.5,34,2.5
	z"/>
</svg>
